#!OML:ASF X:\für Bonn\!DataBase\2005_08_11_Bastian_Final\c3d\Bastian.ASF
:FULLY-SPECIFIED
:DEGREES
111
root -21.5804 17.6091 0.166514 85.5378 -80.7736 -91.4647
lowerback 5.35979 3.47581 9.1881
upperback 3.04378 4.96962 -2.39344
thorax 1.19259 2.65289 -7.84406
lowerneck -9.98733 -9.79331 -3.68952
upperneck -10.697 -12.6342 13.1268
head -0.559659 -6.51196 4.53431
rclavicle 1.5704e-014 -1.59028e-015
rhumerus 59.2843 12.3333 16.2728
rradius 30.9914
rwrist -25.8845
rhand -15.6537 -2.81022
rfingers 7.12502
rthumb 10.5342 -32.5262
lclavicle 1.5704e-014 -1.59028e-015
lhumerus -18.0801 -17.7685 84.5937
lradius 14.8082
lwrist 14.1413
lhand -11.231 -6.37842
lfingers 7.12502
lthumb 14.7979 23.0733
rfemur 9.97806 2.71438 26.148
rtibia 30.3213
rfoot -10.5561 -0.838111
rtoes -26.8356
lfemur -6.72325 4.57322 -11.9737
ltibia 28.2889
lfoot -7.1661 -11.6191
ltoes -3.00881
112
root -21.5859 17.6091 0.169625 85.601 -80.772 -91.4999
lowerback 5.41685 3.50851 9.1634
upperback 3.05836 5.01572 -2.42664
thorax 1.18652 2.67602 -7.86954
lowerneck -9.98703 -9.84143 -3.68504
upperneck -10.7725 -12.6955 13.1793
head -0.575806 -6.54703 4.55103
rclavicle -6.76862e-014 4.13472e-014
rhumerus 59.1586 12.3695 16.4539
rradius 30.9696
rwrist -26.3718
rhand -14.9289 -3.22565
rfingers 7.12502
rthumb 11.2333 -32.9049
lclavicle -6.76862e-014 4.13472e-014
lhumerus -18.1653 -16.7906 84.4032
lradius 14.1027
lwrist 13.2003
lhand -11.0855 -6.14196
lfingers 7.12502
lthumb 14.9381 23.2994
rfemur 9.9707 2.75571 26.1459
rtibia 30.3028
rfoot -10.5325 -0.836041
rtoes -26.9403
lfemur -6.73465 4.52833 -11.9874
ltibia 28.2924
lfoot -7.19368 -11.6009
ltoes -2.78537
113
root -21.5915 17.6094 0.172016 85.5325 -80.7493 -91.3847
lowerback 5.45423 3.53281 9.14448
upperback 3.06147 5.04995 -2.44998
thorax 1.17648 2.69266 -7.88673
lowerneck -9.97643 -9.87312 -3.67003
upperneck -10.8481 -12.7356 13.2174
head -0.597408 -6.57197 4.56289
rclavicle 6.20208e-014 -2.8625e-014
rhumerus 59.0222 12.3576 16.4342
rradius 30.9194
rwrist -26.6003
rhand -14.105 -3.66416
rfingers 7.12502
rthumb 12.0279 -33.2985
lclavicle 6.20208e-014 -2.8625e-014
lhumerus -18.2986 -15.8287 84.2086
lradius 13.4354
lwrist 12.2787
lhand -10.9456 -5.95233
lfingers 7.12502
lthumb 15.0729 23.4789
rfemur 9.95033 2.77625 26.1642
rtibia 30.2839
rfoot -10.5219 -0.849625
rtoes -26.8688
lfemur -6.77442 4.53043 -11.9741
ltibia 28.2977
lfoot -7.21475 -11.6206
ltoes -2.82398
114
root -21.5964 17.6101 0.174624 85.5991 -80.7259 -91.4304
lowerback 5.53074 3.56809 9.143
upperback 3.06922 5.10248 -2.48559
thorax 1.15628 2.71851 -7.92997
lowerneck -9.9942 -9.92368 -3.63895
upperneck -10.911 -12.8034 13.2609
head -0.608293 -6.61027 4.56972
rclavicle -4.99943e-014 2.8625e-014
rhumerus 58.8542 12.3402 16.4037
rradius 30.8772
rwrist -26.8115
rhand -13.2205 -4.07846
rfingers 7.12502
rthumb 12.8806 -33.661
lclavicle -4.99943e-014 2.8625e-014
lhumerus -18.422 -14.8266 83.9515
lradius 12.7696
lwrist 11.1972
lhand -10.8152 -5.82063
lfingers 7.12502
lthumb 15.1985 23.6012
rfemur 9.94977 2.80068 26.1824
rtibia 30.2698
rfoot -10.5156 -0.834638
rtoes -26.8959
lfemur -6.77984 4.52404 -11.9593
ltibia 28.2965
lfoot -7.26972 -11.6153
ltoes -2.96205
115
root -21.6011 17.6104 0.177051 85.527 -80.7233 -91.3122
lowerback 5.57716 3.59334 9.11882
upperback 3.07059 5.13843 -2.52689
thorax 1.14106 2.73585 -7.96428
lowerneck -10.0033 -9.95963 -3.59821
upperneck -10.9658 -12.8529 13.2944
head -0.620982 -6.63954 4.57278
rclavicle 5.00937e-014 0
rhumerus 58.6984 12.2879 16.2169
rradius 30.8042
rwrist -26.8333
rhand -12.3256 -4.4797
rfingers 7.12502
rthumb 13.7432 -34.0058
lclavicle 5.00937e-014 0
lhumerus -18.5696 -13.7583 83.668
lradius 12.1487
lwrist 10.0894
lhand -10.6942 -5.66846
lfingers 7.12502
lthumb 15.3151 23.7444
rfemur 9.92088 2.80689 26.1751
rtibia 30.251
rfoot -10.4904 -0.820593
rtoes -26.999
lfemur -6.81461 4.4925 -11.9688
ltibia 28.3002
lfoot -7.28472 -11.6329
ltoes -2.79735
116
root -21.606 17.6102 0.179139 85.5362 -80.7231 -91.2923
lowerback 5.64059 3.62331 9.08063
upperback 3.07771 5.18096 -2.5588
thorax 1.12148 2.75599 -7.98179
lowerneck -9.99963 -10.0032 -3.59103
upperneck -11.0456 -12.908 13.3484
head -0.639688 -6.67203 4.59042
rclavicle -4.53229e-014 5.725e-014
rhumerus 58.5303 12.2206 16.0118
rradius 30.7406
rwrist -26.8755
rhand -11.4496 -4.85864
rfingers 7.12502
rthumb 14.5873 -34.3257
lclavicle -4.53229e-014 5.725e-014
lhumerus -18.7452 -12.6137 83.3512
lradius 11.5762
lwrist 8.85158
lhand -10.5709 -5.56776
lfingers 7.12502
lthumb 15.4338 23.836
rfemur 9.91615 2.83779 26.1695
rtibia 30.2329
rfoot -10.4918 -0.827721
rtoes -27.0668
lfemur -6.83265 4.50111 -11.978
ltibia 28.3016
lfoot -7.29857 -11.6391
ltoes -2.70008
117
root -21.6104 17.6108 0.180898 85.5561 -80.6964 -91.2841
lowerback 5.69971 3.65129 9.05982
upperback 3.09153 5.22094 -2.57866
thorax 1.11136 2.77565 -7.99567
lowerneck -10.0248 -10.0498 -3.57573
upperneck -11.1075 -12.969 13.3922
head -0.648419 -6.70622 4.60012
rclavicle -9.74045e-015 7.95139e-015
rhumerus 58.3905 12.1823 15.9852
rradius 30.7084
rwrist -27.1032
rhand -10.6318 -5.21004
rfingers 7.12502
rthumb 15.3751 -34.6184
lclavicle -9.74045e-015 7.95139e-015
lhumerus -18.8951 -11.4235 83.0015
lradius 10.994
lwrist 7.54806
lhand -10.4628 -5.51231
lfingers 7.12502
lthumb 15.538 23.8834
rfemur 9.9071 2.83893 26.1862
rtibia 30.2121
rfoot -10.4776 -0.804187
rtoes -27.1054
lfemur -6.85338 4.5123 -11.9553
ltibia 28.3045
lfoot -7.32198 -11.6727
ltoes -2.7638
118
root -21.6144 17.6114 0.182684 85.4829 -80.6921 -91.1738
lowerback 5.76657 3.67128 9.02466
upperback 3.08252 5.25142 -2.61062
thorax 1.07068 2.78824 -8.01601
lowerneck -10.0007 -10.0912 -3.57141
upperneck -11.1695 -13.0217 13.4383
head -0.665228 -6.73693 4.61613
rclavicle -1.51076e-014 7.95139e-015
rhumerus 58.2454 12.1588 15.837
rradius 30.6679
rwrist -27.2821
rhand -9.8265 -5.52322
rfingers 7.12502
rthumb 16.1507 -34.8703
lclavicle -1.51076e-014 7.95139e-015
lhumerus -19.1523 -10.3932 82.6742
lradius 10.51
lwrist 6.37979
lhand -10.4132 -5.4091
lfingers 7.12502
lthumb 15.5857 23.9829
rfemur 9.89435 2.86761 26.1904
rtibia 30.1878
rfoot -10.4629 -0.805009
rtoes -27.0711
lfemur -6.88314 4.49722 -11.9572
ltibia 28.3099
lfoot -7.34257 -11.6899
ltoes -2.62657
